<?xml version="1.0" encoding="UTF-8" standalone="no"?>
<!DOCTYPE svg PUBLIC "-//W3C//DTD SVG 1.1//EN" "http://www.w3.org/Graphics/SVG/1.1/DTD/svg11.dtd">
<svg width="100%" height="100%" viewBox="0 0 64 64" version="1.1" xmlns="http://www.w3.org/2000/svg" xmlns:xlink="http://www.w3.org/1999/xlink" xml:space="preserve" xmlns:serif="http://www.serif.com/" style="fill-rule:evenodd;clip-rule:evenodd;stroke-linejoin:round;stroke-miterlimit:2;">
    <g transform="matrix(1,0,0,1,4.27202,1.33213)">
        <g transform="matrix(83.3333,0,0,83.3333,0.653765,60.3717)">
            <path d="M0.581,-0.505C0.575,-0.662 0.464,-0.731 0.318,-0.731C0.188,-0.731 0.059,-0.667 0.059,-0.522C0.059,-0.391 0.174,-0.358 0.288,-0.333C0.402,-0.308 0.516,-0.291 0.516,-0.193C0.516,-0.09 0.421,-0.063 0.335,-0.063C0.227,-0.063 0.127,-0.115 0.127,-0.235L0.037,-0.235C0.037,-0.061 0.172,0.017 0.332,0.017C0.462,0.017 0.611,-0.044 0.611,-0.196C0.611,-0.336 0.497,-0.376 0.383,-0.402C0.268,-0.428 0.154,-0.441 0.154,-0.529C0.154,-0.622 0.234,-0.651 0.314,-0.651C0.412,-0.651 0.48,-0.607 0.491,-0.505L0.581,-0.505Z" style="fill-rule:nonzero;"/>
        </g>
    </g>
</svg>
